# xmcd
#
# Track frame offsets: 
#        150
#        11837
#        24412
#        39387
#        54197
#        67790
#        82495
#        96452
#        110982
#        126335
#        141882
#        156340
#        171615
#        185747
#        200667
#        215070
#        229745
#        243997
#        258532
#        272835
#        286977
#        301162
#        315185
#        329385
#
# Disc length: 4560 seconds
#
# Revision: 0
# Processed by: cddbd v1.5.2PL0 Copyright (c) Steve Scherf et al.
# Submitted via: ExactAudioCopyFreeDBPlugin 1.0
#
DISCID=7011ce18
DTITLE=Lucille Hegamin - Complete Recorded Works Vol. 1 (1920-1922)
DYEAR=1995
DGENRE=Blues
TTITLE0=The Jazz Me Blues
TTITLE1=Everybody's Blues
TTITLE2=Arkansas Blues
TTITLE3=I'll Be Good but I'll Be Lonesome
TTITLE4=He's My Man (You Better Leave Him Alone)
TTITLE5=Mamma Whip! Mamma Spank! (If Her Daddy Don't Come Home)
TTITLE6=I Wonder Where My Brown Skin Daddy's Gone
TTITLE7=You'll Want My Love
TTITLE8=I Like You Because You Have Such Loving Ways
TTITLE9=Wang Wang Blues
TTITLE10=Strut Miss Lizzie
TTITLE11=Sweet Mama Papa's Getting Mad
TTITLE12=Getting Old Blues
TTITLE13=Lonesome Monday Morning Blues
TTITLE14=Mississippi Blues
TTITLE15=Wabash Blues
TTITLE16=Ain't Givin' Nothin' Away Blues
TTITLE17=Can't Feel Jolly Blues
TTITLE18=He May Be Your Man but He Comes to See Me Sometimes
TTITLE19=You've Had Your Day
TTITLE20=I've Got the Wonder Where He Went (And When He's Coming Back 
TTITLE20=Blues)
TTITLE21=He May Be Your Man (But He Comes to See Me)
TTITLE22=State Street Blues
TTITLE23=High Brown Blues
EXTD=
EXTT0=
EXTT1=
EXTT2=
EXTT3=
EXTT4=
EXTT5=
EXTT6=
EXTT7=
EXTT8=
EXTT9=
EXTT10=
EXTT11=
EXTT12=
EXTT13=
EXTT14=
EXTT15=
EXTT16=
EXTT17=
EXTT18=
EXTT19=
EXTT20=
EXTT21=
EXTT22=
EXTT23=
PLAYORDER=
